<svg version="1" xmlns="http://www.w3.org/2000/svg" width="1333.333" height="1333.333" viewBox="0 0 1000.000000 1000.000000"><path d="M227 318.5v8.5h97v358h-97v17.1l191.8-.4c209.7-.4 199-.1 233.2-6.3 57.5-10.5 96.4-33.2 112.8-65.9 5.2-10.5 7.4-19 7.9-31.6 1.1-22.8-5.3-40.8-20-56.6-24.6-26.3-72.5-43.7-133.6-48.3-26.6-2.1-27.4-2.8-5.3-5.2 54-6 92.6-21.9 110-45.3 15.9-21.3 17.5-50.7 4-73.2-1.8-3.1-6.5-8.9-10.4-12.9-24.6-25.1-71.1-40.6-135.9-45.4-8.8-.6-77.5-1-184.2-1H227v8.5zm321 9.5c33.9 3.1 55 10.7 69.5 25.4 8 8.1 12.4 15.6 15.7 27.1 3 10.7 3.3 36.7.5 48.8-6.6 27.9-25.6 44.4-59.7 51.9-9 2-13.1 2.1-74.2 2.5l-64.8.4V327h50.8c27.9 0 55.9.5 62.2 1zm32 175.4c46.9 6.9 70.5 24.5 79.7 59.4 3.4 13 4.3 38.9 1.9 53-6.7 38.4-31.6 59.1-80.6 66.8-8.8 1.4-21.5 1.8-78.2 2.1l-67.8.4V500.8l66.8.5c55.8.3 68.6.7 78.2 2.1z"/></svg>